<?xml version="1.0" encoding="UTF-8"?>
<svg width="18px" height="20px" viewBox="0 0 18 20" version="1.1" xmlns="http://www.w3.org/2000/svg" xmlns:xlink="http://www.w3.org/1999/xlink">
    <!-- Generator: Sketch 61.2 (89653) - https://sketch.com -->
    <title>3rd_trash_b备份 3</title>
    <desc>Created with Sketch.</desc>
    <g id="会员管理" stroke="none" stroke-width="1" fill="none" fill-rule="evenodd">
        <g id="会员管理首页" transform="translate(-1318.000000, -402.000000)" fill="#725CD7" fill-rule="nonzero">
            <g id="编组-9" transform="translate(312.000000, 292.000000)">
                <g id="编组-12" transform="translate(0.000000, 107.000000)">
                    <g id="3rd_trash" transform="translate(1005.000000, 3.000000)">
                        <path d="M16.6666667,5.33333333 L16.6666667,17.3333333 C16.6666667,18.8060927 15.4727593,20 14,20 L6,20 C4.52724067,20 3.33333333,18.8060927 3.33333333,17.3333333 L3.33333333,5.33333333 L16.6666667,5.33333333 Z M7.5,6.333 L4.33333333,6.33333333 L4.33333333,17.3333333 C4.33333333,18.2538079 5.07952542,19 6,19 L14,19 C14.9204746,19 15.6666667,18.2538079 15.6666667,17.3333333 L15.6666667,6.33333333 L11.833,6.333 L11.8333333,12.6520182 C11.8333333,12.9281606 11.6094757,13.1520182 11.3333333,13.1520182 C11.057191,13.1520182 10.8333333,12.9281606 10.8333333,12.6520182 L10.833,6.333 L8.5,6.333 L8.5,12.6520182 C8.5,12.9281606 8.27614237,13.1520182 8,13.1520182 C7.72385763,13.1520182 7.5,12.9281606 7.5,12.6520182 L7.5,6.333 Z M10.6666667,0 C12.139426,0 13.3333333,1.19390733 13.3333333,2.66666667 L13.333,3.031 L18,3.03186035 C18.2761424,3.03186035 18.5,3.25571798 18.5,3.53186035 C18.5,3.80800273 18.2761424,4.03186035 18,4.03186035 L2,4.03186035 C1.72385763,4.03186035 1.5,3.80800273 1.5,3.53186035 C1.5,3.25571798 1.72385763,3.03186035 2,3.03186035 L6.666,3.031 L6.66666667,2.66666667 C6.66666667,1.19390733 7.860574,0 9.33333333,0 L10.6666667,0 Z M10.6666667,1 L9.33333333,1 C8.41285875,1 7.66666667,1.74619208 7.66666667,2.66666667 L7.66666667,3 L12.3333333,3 L12.3333333,2.66666667 C12.3333333,1.74619208 11.5871412,1 10.6666667,1 Z" id="合并形状"></path>
                    </g>
                </g>
            </g>
        </g>
    </g>
</svg>