<?xml version="1.0" encoding="UTF-8"?>
<svg width="17px" height="20px" viewBox="0 0 17 20" version="1.1" xmlns="http://www.w3.org/2000/svg" xmlns:xlink="http://www.w3.org/1999/xlink">
    <!-- Generator: Sketch 61.2 (89653) - https://sketch.com -->
    <title>Combined Shape</title>
    <desc>Created with Sketch.</desc>
    <g id="门店管理" stroke="none" stroke-width="1" fill="none" fill-rule="evenodd">
        <g id="门店管理首页" transform="translate(-1320.000000, -511.000000)" fill="#725CD7">
            <g id="编组-9" transform="translate(312.000000, 292.000000)">
                <path d="M1023.16667,224.333333 L1023.16667,236.333333 C1023.16667,237.806093 1021.97276,239 1020.5,239 L1012.5,239 C1011.02724,239 1009.83333,237.806093 1009.83333,236.333333 L1009.83333,224.333333 L1023.16667,224.333333 Z M1014.5,224.5 C1014.22386,224.5 1014,224.723858 1014,225 L1014,225 L1014,231.652018 C1014,231.928161 1014.22386,232.152018 1014.5,232.152018 C1014.77614,232.152018 1015,231.928161 1015,231.652018 L1015,231.652018 L1015,225 C1015,224.723858 1014.77614,224.5 1014.5,224.5 Z M1017.83333,224.5 C1017.55719,224.5 1017.33333,224.723858 1017.33333,225 L1017.33333,225 L1017.33333,231.652018 C1017.33333,231.928161 1017.55719,232.152018 1017.83333,232.152018 C1018.10948,232.152018 1018.33333,231.928161 1018.33333,231.652018 L1018.33333,231.652018 L1018.33333,225 C1018.33333,224.723858 1018.10948,224.5 1017.83333,224.5 Z M1017.16667,219 C1018.63943,219 1019.83333,220.193907 1019.83333,221.666667 L1019.833,222.031 L1024.5,222.03186 C1024.77614,222.03186 1025,222.255718 1025,222.53186 C1025,222.808003 1024.77614,223.03186 1024.5,223.03186 L1008.5,223.03186 C1008.22386,223.03186 1008,222.808003 1008,222.53186 C1008,222.255718 1008.22386,222.03186 1008.5,222.03186 L1013.166,222.031 L1013.16667,221.666667 C1013.16667,220.193907 1014.36057,219 1015.83333,219 L1017.16667,219 Z" id="Combined-Shape"></path>
            </g>
        </g>
    </g>
</svg>