<?xml version="1.0" encoding="UTF-8"?>
<svg width="14px" height="14px" viewBox="0 0 14 14" version="1.1" xmlns="http://www.w3.org/2000/svg" xmlns:xlink="http://www.w3.org/1999/xlink">
    <!-- Generator: Sketch 61.2 (89653) - https://sketch.com -->
    <title>Mesaage/_Resource/Error</title>
    <desc>Created with Sketch.</desc>
    <g id="控件" stroke="none" stroke-width="1" fill="none" fill-rule="evenodd">
        <g id="Message/Error" transform="translate(-16.000000, -13.000000)" fill="#F5222D">
            <g id="消息提示Message-浮出主动消失型消息提醒-红色icon">
                <g id="Message/_Icon/Error" transform="translate(16.000000, 13.000000)">
                    <path d="M7,0 C3.13359375,0 0,3.13359375 0,7 C0,10.8664062 3.13359375,14 7,14 C10.8664062,14 14,10.8664062 14,7 C14,3.13359375 10.8664062,0 7,0 L7,0 Z M10.2949219,9.61542969 C10.4671875,9.78496094 10.4699219,10.0611328 10.3017578,10.2347656 L10.3017578,10.2347656 C10.1322266,10.4070312 9.85605469,10.4097656 9.68242188,10.2416016 L7,7.6125 L4.31757813,10.2402344 C4.1453125,10.4097656 3.86777344,10.4070312 3.69824219,10.2333984 L3.69824219,10.2333984 C3.52871094,10.0611328 3.53144531,9.78359375 3.70507812,9.6140625 L6.37519531,7 L3.70507812,4.38457031 C3.5328125,4.21503906 3.53007812,3.93886719 3.69824219,3.76523438 L3.69824219,3.76523438 C3.86777344,3.59296875 4.14394531,3.59023438 4.31757813,3.75839844 L7,6.3875 L9.68242188,3.75976563 C9.8546875,3.59023438 10.1322266,3.59296875 10.3017578,3.76660156 L10.3017578,3.76660156 C10.4712891,3.93886719 10.4685547,4.21640625 10.2949219,4.3859375 L7.62480469,7 L10.2949219,9.61542969 L10.2949219,9.61542969 Z" id="Shape"></path>
                </g>
            </g>
        </g>
    </g>
</svg>