<?xml version="1.0" encoding="UTF-8"?>
<svg width="14px" height="14px" viewBox="0 0 14 14" version="1.1" xmlns="http://www.w3.org/2000/svg" xmlns:xlink="http://www.w3.org/1999/xlink">
    <!-- Generator: Sketch 61.2 (89653) - https://sketch.com -->
    <title>Shape Copy 2</title>
    <desc>Created with Sketch.</desc>
    <g id="门店管理" stroke="none" stroke-width="1" fill="none" fill-rule="evenodd">
        <g id="门店管理店铺基本信息填写" transform="translate(-1242.000000, -214.000000)" fill="#725CD7">
            <g id="编组" transform="translate(280.000000, 95.000000)">
                <path d="M962,126 C962,122.133594 965.133594,119 969,119 C972.866406,119 976,122.133594 976,126 C976,129.866406 972.866406,133 969,133 C965.133594,133 962,129.866406 962,126 Z M969.4375,122.0625 C969.4375,121.820508 969.241992,121.625 969,121.625 L969,121.625 C968.758008,121.625 968.5625,121.820508 968.5625,122.0625 L968.5625,122.0625 C968.5625,122.304492 968.758008,122.5 969,122.5 L969,122.5 C969.241992,122.5 969.4375,122.304492 969.4375,122.0625 L969.4375,122.0625 L969.4375,122.0625 Z M969.4375,123.8125 C969.4375,123.570508 969.241992,123.375 969,123.375 L969,123.375 C968.758008,123.375 968.5625,123.570508 968.5625,123.8125 L968.5625,129.9375 C968.5625,130.179492 968.758008,130.375 969,130.375 L969,130.375 C969.241992,130.375 969.4375,130.179492 969.4375,129.9375 L969.4375,123.8125 L969.4375,123.8125 Z" id="Shape-Copy-2" transform="translate(969.000000, 126.000000) scale(1, -1) translate(-969.000000, -126.000000) "></path>
            </g>
        </g>
    </g>
</svg>