<?xml version="1.0" encoding="UTF-8"?>
<svg width="22px" height="17px" viewBox="0 0 22 17" version="1.1" xmlns="http://www.w3.org/2000/svg" xmlns:xlink="http://www.w3.org/1999/xlink">
    <!-- Generator: Sketch 61.2 (89653) - https://sketch.com -->
    <title>Rectangle Copy 18</title>
    <desc>Created with Sketch.</desc>
    <g id="店铺流水" stroke="none" stroke-width="1" fill="none" fill-rule="evenodd">
        <g id="店铺流水-统计" transform="translate(-1067.000000, -956.000000)" fill="#E7AE85">
            <g id="编组-3" transform="translate(277.000000, 779.000000)">
                <g id="模块4" transform="translate(760.000000, 61.000000)">
                    <g id="Group-14" transform="translate(30.000000, 116.000000)">
                        <path d="M1.74702869,5.01980923 L5.41568215,6.90680823 C5.87115323,7.14108314 6.4300062,6.9933396 6.7101913,6.56457982 L10.1813469,1.25276302 C10.4834651,0.790439528 11.1031676,0.660567516 11.5654911,0.962685762 C11.6754092,1.03451484 11.7701051,1.12728819 11.8441734,1.23571008 L15.4946062,6.57925297 C15.7822533,7.00031379 16.3406538,7.13749434 16.7906631,6.89765127 L20.2345018,5.06217609 C20.7218846,4.80241389 21.3275654,4.98693689 21.5873276,5.47431974 C21.6891339,5.66533549 21.7262141,5.88422711 21.6929985,6.09811557 L20.1314635,16.1534548 C20.0558049,16.6406503 19.636343,17 19.1433078,17 L2.85669218,17 C2.36365701,17 1.9441951,16.6406503 1.8685365,16.1534548 L0.301474606,6.06252587 C0.216723881,5.51678256 0.590432207,5.00566616 1.13617552,4.92091544 C1.34512781,4.88846637 1.55898817,4.9230892 1.74702869,5.01980923 Z" id="Rectangle-Copy-18" transform="translate(11.000000, 8.500000) rotate(-360.000000) translate(-11.000000, -8.500000) "></path>
                    </g>
                </g>
            </g>
        </g>
    </g>
</svg>