<?xml version="1.0" encoding="UTF-8"?>
<svg width="10px" height="9px" viewBox="0 0 10 9" version="1.1" xmlns="http://www.w3.org/2000/svg" xmlns:xlink="http://www.w3.org/1999/xlink">
    <!-- Generator: Sketch 61.2 (89653) - https://sketch.com -->
    <title>Shape</title>
    <desc>Created with Sketch.</desc>
    <g id="控件" stroke="none" stroke-width="1" fill="none" fill-rule="evenodd">
        <g id="Switch/Icon/Off" transform="translate(-24.000000, -7.000000)" fill="#FFFFFF" fill-rule="nonzero">
            <g id="Group">
                <g id="Unknown" transform="translate(24.000000, 7.000000)">
                    <path d="M5.72526042,4.20442708 L9.04296875,0.889322917 C9.24348958,0.688802083 9.24348958,0.364583333 9.04296875,0.165364583 C8.84244792,-0.03515625 8.51822917,-0.03515625 8.31901042,0.165364583 L5,3.47916667 L1.68098958,0.1640625 C1.48046875,-0.0364583333 1.15625,-0.0364583333 0.95703125,0.1640625 C0.756510417,0.364583333 0.756510417,0.688802083 0.95703125,0.888020833 L4.27473958,4.203125 L0.95703125,7.51953125 C0.756510417,7.72005208 0.756510417,8.04427083 0.95703125,8.24348958 C1.05729167,8.34375 1.18880208,8.39322917 1.31901042,8.39322917 C1.45052083,8.39322917 1.58072917,8.34375 1.68098958,8.24348958 L5,4.92838542 L8.31901042,8.24479167 C8.41927083,8.34505208 8.54947917,8.39453125 8.68098958,8.39453125 C8.8125,8.39453125 8.94270833,8.34505208 9.04296875,8.24479167 C9.24348958,8.04427083 9.24348958,7.72005208 9.04296875,7.52083333 L5.72526042,4.20442708 Z" id="Shape"></path>
                </g>
            </g>
        </g>
    </g>
</svg>