<?xml version="1.0" encoding="UTF-8"?>
<svg width="10px" height="8px" viewBox="0 0 10 8" version="1.1" xmlns="http://www.w3.org/2000/svg" xmlns:xlink="http://www.w3.org/1999/xlink">
    <!-- Generator: Sketch 61.2 (89653) - https://sketch.com -->
    <title>Combined Shape</title>
    <desc>Created with Sketch.</desc>
    <g id="控件" stroke="none" stroke-width="1" fill="none" fill-rule="evenodd">
        <g id="Switch/Icon/On" transform="translate(-8.000000, -7.000000)" fill="#FFFFFF">
            <g id="Group-2">
                <g id="Group" transform="translate(8.000000, 6.000000)">
                    <path d="M9.22491744,1.67107685 C9.41730536,1.8443037 9.43283847,2.14069304 9.25961161,2.33308096 L3.66918748,8.54187596 C3.612634,8.60468496 3.5429535,8.64864423 3.4680504,8.67333952 C3.46089966,8.67462623 3.45420397,8.67694476 3.44747108,8.67910626 C3.43803123,8.68224794 3.42830431,8.68463807 3.41852054,8.68671412 C3.25561596,8.72835781 3.0758697,8.68005227 2.95554594,8.54641919 L2.95554594,8.54641919 L0.747332447,6.09394965 C0.574105589,5.90156174 0.589638696,5.6051724 0.782026612,5.43194554 C0.974414528,5.25871869 1.27080386,5.27425179 1.44403072,5.46663971 L1.44403072,5.46663971 L3.30992759,7.53867199 L8.56291333,1.70577101 C8.73614019,1.5133831 9.03252953,1.49784999 9.22491744,1.67107685 Z" id="Combined-Shape"></path>
                </g>
            </g>
        </g>
    </g>
</svg>