<?xml version="1.0" encoding="UTF-8"?>
<svg width="18px" height="18px" viewBox="0 0 18 18" version="1.1" xmlns="http://www.w3.org/2000/svg" xmlns:xlink="http://www.w3.org/1999/xlink">
    <!-- Generator: Sketch 61.2 (89653) - https://sketch.com -->
    <title>ic_search</title>
    <desc>Created with Sketch.</desc>
    <g id="门店管理" stroke="none" stroke-width="1" fill="none" fill-rule="evenodd">
        <g id="门店管理首页" transform="translate(-610.000000, -150.000000)" fill="#725CD7">
            <g id="编组-7" transform="translate(312.000000, 142.000000)">
                <g id="zoomin" transform="translate(299.000000, 9.000000)">
                    <g transform="translate(-0.800000, -0.800000)" id="Combined-Shape">
                        <path d="M7.61481481,0.4 C11.599447,0.4 14.8296296,3.63018262 14.8296296,7.61481481 C14.8296296,9.56250462 14.0578556,11.3299369 12.803441,12.6279782 L17.0689907,16.5039527 C17.2324931,16.6525121 17.2446068,16.9054882 17.0960473,17.0689907 C16.9474879,17.2324931 16.6945118,17.2446068 16.5310093,17.0960473 L12.2140046,13.1739337 C10.9654262,14.2080745 9.36270649,14.8296296 7.61481481,14.8296296 C3.63018262,14.8296296 0.4,11.599447 0.4,7.61481481 C0.4,3.63018262 3.63018262,0.4 7.61481481,0.4 Z M7.61481481,1.2 C4.07201042,1.2 1.2,4.07201042 1.2,7.61481481 C1.2,11.1576192 4.07201042,14.0296296 7.61481481,14.0296296 C11.1576192,14.0296296 14.0296296,11.1576192 14.0296296,7.61481481 C14.0296296,4.07201042 11.1576192,1.2 7.61481481,1.2 Z" fill-rule="nonzero"></path>
                    </g>
                </g>
            </g>
        </g>
    </g>
</svg>