<?xml version="1.0" encoding="UTF-8"?>
<svg width="39px" height="39px" viewBox="0 0 39 39" version="1.1" xmlns="http://www.w3.org/2000/svg" xmlns:xlink="http://www.w3.org/1999/xlink">
    <!-- Generator: Sketch 61.2 (89653) - https://sketch.com -->
    <title>编组 5</title>
    <desc>Created with Sketch.</desc>
    <g id="会员管理" stroke="none" stroke-width="1" fill="none" fill-rule="evenodd">
        <g id="会员管理首页" transform="translate(-1272.000000, -16.000000)">
            <g id="编组-6" transform="translate(1272.000000, 16.000000)">
                <g id="编组-5">
                    <g id="Group">
                        <circle id="Oval" fill="#A3DBFF" cx="19.2" cy="19.2" r="19.2"></circle>
                        <g id="Group-2" transform="translate(8.064000, 4.608000)">
                            <path d="M6.79144186,7.01840632 C6.79144186,7.01840632 11.963386,6.15419957 13.8704752,4.05915291 C15.5941953,2.14742283 15.5683576,0 15.5683576,0" id="Stroke-600" stroke="#2150B7" stroke-width="1.04752333" stroke-linecap="round" stroke-linejoin="round"></path>
                            <path d="M12.1984744,0.785642498 C12.1984744,0.785642498 13.3477953,5.18550237 10.7095814,8.06619153" id="Stroke-602" stroke="#2150B7" stroke-width="1.04752333" stroke-linecap="round" stroke-linejoin="round"></path>
                            <path d="M9.87371163,2.88068916 C9.87371163,2.88068916 10.3700093,4.47842412 9.66474419,5.97114487" id="Stroke-604" stroke="#2150B7" stroke-width="1.04752333" stroke-linecap="round" stroke-linejoin="round"></path>
                            <path d="M13.8954558,31.0444104 C13.8954558,31.0444104 17.778217,29.6481771 16.5996595,29.9908672 C15.8562619,30.2070255 15.0425588,30.473374 14.3656326,30.7672264 C12.8506186,31.4219285 12.9551024,33.411961 14.0783024,34.093113 C15.2015024,34.8001912 19.8510279,34.9046817 21.3657807,33.0191397 C24.2654651,29.7980055 19.3547303,20.9990714 19.3547303,20.9990714 C19.3547303,20.9990714 18.1792884,20.0039242 13.8954558,19.4537126 C9.63774422,18.9040247 5.58900003,21.5752092 5.58900003,21.5752092 C5.58900003,21.5752092 3.08112952,23.4869393 1.25266441,29.7456293 C-0.0533821059,34.1976035 5.22330701,33.8312322 5.22330701,33.8312322 C5.22330701,33.8312322 6.86866441,36.5545309 10.0556791,36.4759667 C13.9213156,36.3976643 15.9590093,35.7167742 17.3434186,34.6168747 C15.3987068,34.5402818 14.2105584,34.278401 13.7789736,33.8312322 C13.4443445,33.48452 13.4831719,32.5555795 13.8954558,31.0444104 Z" id="Fill-624" fill="#91D5FF"></path>
                            <path d="M20.6180606,22.9845241 C20.6180606,22.9845241 22.1069536,20.3919039 20.7747862,19.4491329 C19.4162366,18.4801738 19.9650373,18.5846643 19.6254652,17.5112147 C18.946321,15.8613655 16.9872513,15.5209204 16.9872513,15.5209204 C16.9872513,15.5209204 14.6363676,15.36353 12.6772978,15.5209204 C10.718228,15.6780489 7.29638616,17.1183935 7.29638616,17.1183935 C7.29638616,17.1183935 3.06479546,20.2347754 6.69560476,21.8322485 C8.47182802,23.4294597 9.64726988,25.1581351 9.64726988,25.1581351 C9.64726988,25.1581351 16.9611303,19.5800733 19.6254652,21.0725322 L20.6180606,22.9845241 Z" id="Fill-626" fill="#43BCFF"></path>
                            <path d="M12.2173318,10.4752333 C17.9639365,11.8370136 16.3966807,6.02325915 16.3966807,6.02325915 C16.3966807,6.02325915 15.9526249,6.38963044 0.227824857,12.3345872 C-1.52227747,16.2627997 7.38495974,16.3937401 7.38495974,16.3937401 L7.09762951,20.3219526 L9.63135974,23.7264034 C9.63135974,23.7264034 11.5304727,21.7238414 13.728629,20.0347452 C15.0069629,19.0524543 16.608587,18.1780487 17.415397,17.8602728 L15.0383923,10.5797238" id="Fill-628" fill="#D7F0FF"></path>
                            <path d="M16.3966807,6.02325915 C16.3966807,6.02325915 15.9526249,6.38963044 0.227824857,12.3345872 C-1.52227747,16.2627997 7.38495974,16.3937401 7.38495974,16.3937401 L7.09762951,20.3219526 L9.60014439,23.8190992 C11.2956546,21.9937465 12.7357062,20.6457908 13.9202991,19.7752321 C15.104892,18.9046735 16.3788116,18.2581289 17.7420577,17.8355983 L15.170505,10.4737246 C15.7975047,9.92514368 16.1625666,9.49767259 16.2656907,9.19131132 C16.809719,7.5751115 16.3966807,6.02325915 16.3966807,6.02325915 Z" id="Stroke-702" fill="#FFFFFF"></path>
                            <path d="M12.2173318,10.4752333 C17.9639365,11.8370136 16.3966807,6.02325915 16.3966807,6.02325915 C16.3966807,6.02325915 15.9526249,6.38963044 0.227824857,12.3345872 C-1.52227747,16.2627997 7.38495974,16.3937401 7.38495974,16.3937401 L7.09762951,20.3219526" id="Stroke-702" stroke="#2150B7" stroke-width="0.8" stroke-linecap="round" stroke-linejoin="round"></path>
                            <path d="M18.1279256,17.8078966 C14.7583256,17.965287 9.53413953,23.8835319 9.53413953,23.8835319 L6.79144186,20.0076956" id="Stroke-704" stroke="#2150B7" stroke-width="0.8" stroke-linecap="round" stroke-linejoin="round"></path>
                            <path d="M7.29638616,17.284135 C7.29638616,17.284135 3.06479546,20.4005169 6.69560476,21.9979899 C8.81140011,24.0409223 9.64726988,25.3238765 9.64726988,25.3238765 C9.64726988,25.3238765 17.1700978,18.9863604 20.4090931,21.2387974" id="Stroke-706" stroke="#2150B7" stroke-width="0.8" stroke-linecap="round" stroke-linejoin="round"></path>
                            <path d="M5.54261554,21.4742283 C5.54261554,21.4742283 2.85215973,23.3338441 1.20654112,29.6449103 C0.08360233,33.965944 5.17718373,33.7305131 5.17718373,33.7305131" id="Stroke-708" stroke="#2150B7" stroke-width="0.8" stroke-linecap="round" stroke-linejoin="round"></path>
                            <path d="M2.87330233,29.1751875 C2.87330233,29.1751875 5.0935814,28.4419212 5.98169302,30.8250367" id="Stroke-710" stroke="#2150B7" stroke-width="0.8" stroke-linecap="round" stroke-linejoin="round"></path>
                            <polygon id="Fill-712" fill="#FFFFFF" points="8.09748837 27.2356066 12.6425302 27.2356066 11.9114054 34.8825269 8.85499535 34.8825269"></polygon>
                            <polygon id="Stroke-714" stroke="#2150B7" stroke-width="0.8" stroke-linecap="round" stroke-linejoin="round" points="8.09748837 27.2356066 12.6425302 27.2356066 11.9114054 34.8825269 8.85499535 34.8825269"></polygon>
                            <line x1="6.24290233" y1="26.1880833" x2="6.00781395" y2="30.849824" id="Stroke-716" stroke="#2150B7" stroke-width="0.8" stroke-linecap="round" stroke-linejoin="round"></line>
                            <path d="M2.87521088,33.067091 C2.87521088,33.067091 2.77098837,31.6529345 4.1028946,31.1291728 C6.21868995,30.3173422 8.25638372,31.8098011 8.30836437,33.5644027 C8.36060623,35.3451923 6.66274577,35.1097615 6.03610465,34.7955045 C5.40894111,34.5074355 5.2260946,33.6170407 4.4424667,33.7739073 C3.68522093,33.9572239 2.95357367,33.9572239 2.87521088,33.067091" id="Fill-744" fill="#E6F7FF"></path>
                            <path d="M2.87521088,33.067091 C2.87521088,33.067091 2.77098837,31.6529345 4.1028946,31.1291728 C6.21868995,30.3173422 8.25638372,31.8098011 8.30836437,33.5644027 C8.36060623,35.3451923 6.66274577,35.1097615 6.03610465,34.7955045 C5.40894111,34.5074355 5.2260946,33.6170407 4.4424667,33.7739073 C3.68522093,33.9572239 2.95357367,33.9572239 2.87521088,33.067091 Z" id="Stroke-746" stroke="#2150B7" stroke-width="0.8" stroke-linecap="round" stroke-linejoin="round"></path>
                            <path d="M8.09748837,11.7846375 C8.09748837,12.0727064 7.8624,12.3083991 7.57506977,12.3083991 C7.28747833,12.3083991 7.05265116,12.0727064 7.05265116,11.7846375 C7.05265116,11.4963067 7.28747833,11.2608758 7.57506977,11.2608758 C7.8624,11.2608758 8.09748837,11.4703805 8.09748837,11.7846375" id="Fill-756" fill="#2150B7"></path>
                            <line x1="15.3421395" y1="10.5973525" x2="17.6486016" y2="17.7478041" id="Stroke-758" stroke="#2150B7" stroke-width="0.8" stroke-linecap="round" stroke-linejoin="round"></line>
                            <path d="M19.444828,21.2123475 C19.444828,21.2123475 24.3555629,29.8544149 21.4561397,33.0758111 C19.9411257,34.9610912 15.2918613,34.8301508 14.1686613,34.1492606 C13.0452001,33.4421823 12.9409776,31.4780761 14.4557304,30.823374 C16.2319536,30.0377315 18.8704288,29.4880436 18.8704288,29.4880436" id="Stroke-760" stroke="#2150B7" stroke-width="0.8" stroke-linecap="round" stroke-linejoin="round"></path>
                            <line x1="17.1875721" y1="29.8544149" x2="16.9786047" y2="26.9737258" id="Stroke-762" stroke="#2150B7" stroke-width="0.8" stroke-linecap="round" stroke-linejoin="round"></line>
                            <path d="M16.9786047,15.71285 C16.9786047,15.71285 18.9640566,16.0535569 19.6170798,17.7034062 C19.9563907,18.7509295 19.4339721,18.6723653 20.7661395,19.6410625 C22.1244279,20.6100215 20.609414,23.0193252 20.609414,23.0193252" id="Stroke-764" stroke="#2150B7" stroke-width="0.8" stroke-linecap="round" stroke-linejoin="round"></path>
                            <path d="M13.5237312,31.0064287 L12.3482893,30.3781766 C12.3482893,30.3781766 12.9493319,31.6875808 9.99740562,31.8444474 C8.79584283,31.8968235 8.66523818,34.0180583 10.8855172,34.5156319 C14.2031366,35.222972 15.6656475,32.4991495 13.5237312,31.0064287" id="Fill-766" fill="#E6F7FF"></path>
                            <path d="M13.5237312,31.0064287 L12.3482893,30.3781766 C12.3482893,30.3781766 12.9493319,31.6875808 9.99740562,31.8444474 C8.79584283,31.8968235 8.66523818,34.0180583 10.8855172,34.5156319 C14.2031366,35.222972 15.6656475,32.4991495 13.5237312,31.0064287 Z" id="Stroke-768" stroke="#2150B7" stroke-width="0.8" stroke-linecap="round" stroke-linejoin="round"></path>
                        </g>
                    </g>
                </g>
            </g>
        </g>
    </g>
</svg>