<?xml version="1.0" encoding="UTF-8"?>
<svg width="16px" height="20px" viewBox="0 0 16 20" version="1.1" xmlns="http://www.w3.org/2000/svg" xmlns:xlink="http://www.w3.org/1999/xlink">
    <!-- Generator: Sketch 61.2 (89653) - https://sketch.com -->
    <title>map _edit_click</title>
    <desc>Created with Sketch.</desc>
    <g id="门店管理" stroke="none" stroke-width="1" fill="none" fill-rule="evenodd">
        <g id="门店管理首页" transform="translate(-1277.000000, -510.000000)" stroke="#725CD7">
            <g id="编组-9" transform="translate(312.000000, 292.000000)">
                <g id="map-_edit_click" transform="translate(962.000000, 217.000000)">
                    <g id="Group">
                        <g transform="translate(0.285714, 0.714286)" stroke-width="1.33333333">
                            <path d="M10.3475322,2.21282292 C10.6664553,1.66256523 11.2498884,1.33333333 11.8741279,1.33333333 C12.1805614,1.33333333 12.483059,1.41316577 12.7529178,1.56760685 L17.0350391,4.00448145 C17.4401384,4.23904405 17.7359783,4.62391309 17.8567614,5.07580154 C17.9775992,5.52789481 17.9141003,6.00932725 17.6801148,6.41426121 L12.1898706,15.9152297 C11.9989756,16.2463612 11.7055853,16.5060381 11.4390457,16.6119589 L6.87587656,19.3821684 C6.656332,19.4756791 6.42040286,19.5238095 6.18362195,19.5238095 C5.87460867,19.5238095 5.57043128,19.4429156 5.30117067,19.287437 C4.82052803,19.009872 4.49845642,18.5225331 4.42662675,17.9027335 L4.34613165,13.0964034 C4.30020039,12.7177946 4.37864585,12.3341531 4.57272472,11.9975685 L10.3475322,2.21282292 Z" id="Fill-41" fill="#725CD7"></path>
                            <line x1="12.1426199" y1="19.0909091" x2="17.8311688" y2="19.0909091" id="Line" stroke-linecap="round" stroke-linejoin="round"></line>
                        </g>
                    </g>
                </g>
            </g>
        </g>
    </g>
</svg>