<?xml version="1.0" encoding="UTF-8"?>
<svg width="16px" height="20px" viewBox="0 0 16 20" version="1.1" xmlns="http://www.w3.org/2000/svg" xmlns:xlink="http://www.w3.org/1999/xlink">
    <!-- Generator: Sketch 61.2 (89653) - https://sketch.com -->
    <title>map _edit备份</title>
    <desc>Created with Sketch.</desc>
    <g id="会员管理" stroke="none" stroke-width="1" fill="none" fill-rule="evenodd">
        <g id="会员管理首页" transform="translate(-1276.000000, -402.000000)" stroke="#725CD7">
            <g id="编组-9" transform="translate(312.000000, 292.000000)">
                <g id="编组-12" transform="translate(0.000000, 107.000000)">
                    <g id="map-_edit_name" transform="translate(962.000000, 3.000000)">
                        <g id="Group" transform="translate(4.285714, 1.714286)">
                            <path d="M5.34753216,0.212822915 C5.66645532,-0.337434769 6.24988842,-0.666666667 6.8741279,-0.666666667 C7.18056137,-0.666666667 7.48305898,-0.586834227 7.75291779,-0.432393153 L12.0350391,2.00448145 C12.4401384,2.23904405 12.7359783,2.62391309 12.8567614,3.07580154 C12.9775992,3.52789481 12.9141003,4.00932725 12.6801148,4.41426121 L7.18987058,13.9152297 C6.99897558,14.2463612 6.70558535,14.5060381 6.43904571,14.6119589 L1.87587656,17.3821684 C1.656332,17.4756791 1.42040286,17.5238095 1.18362195,17.5238095 C0.874608673,17.5238095 0.570431281,17.4429156 0.301170672,17.287437 C-0.179471967,17.009872 -0.50154358,16.5225331 -0.57337325,15.9027335 L-0.653868346,11.0964034 C-0.699799612,10.7177946 -0.621354148,10.3341531 -0.42727528,9.99756847 L5.34753216,0.212822915 Z" id="Fill-41" stroke-width="1.33333333"></path>
                            <line x1="7.14261994" y1="17.0909091" x2="12.8311688" y2="17.0909091" id="Line" stroke-width="1.33333333" stroke-linecap="round" stroke-linejoin="round"></line>
                        </g>
                    </g>
                </g>
            </g>
        </g>
    </g>
</svg>