<?xml version="1.0" encoding="UTF-8"?>
<svg width="12px" height="12px" viewBox="0 0 12 12" version="1.1" xmlns="http://www.w3.org/2000/svg" xmlns:xlink="http://www.w3.org/1999/xlink">
    <!-- Generator: Sketch 61.2 (89653) - https://sketch.com -->
    <title>Icon/Save</title>
    <desc>Created with Sketch.</desc>
    <defs>
        <path d="M10.166884,2 L3.12646675,2 C2.50378096,2 2,2.50378096 2,3.12646675 L2,12.8735332 C2,13.496219 2.50378096,14 3.12646675,14 L12.8735332,14 C13.496219,14 14,13.496219 14,12.8735332 L14,5.8315515 L10.166884,2 Z M5.14315515,3.12646675 L8.53820078,3.12646675 L8.53820078,6.34784876 C8.53820078,6.65919166 8.2863103,6.91108214 7.97496741,6.91108214 L5.70638853,6.91108214 C5.39504563,6.91108214 5.14315515,6.65919166 5.14315515,6.34784876 L5.14315515,3.12646675 Z M12.8735332,12.8735332 L3.12646675,12.8735332 L3.12646675,3.12646675 L4.0166884,3.12646675 L4.0166884,6.34784876 C4.0166884,7.28031291 4.77392438,8.03754889 5.70638853,8.03754889 L7.97496741,8.03754889 C8.90743155,8.03754889 9.66466754,7.28031291 9.66466754,6.34784876 L9.66466754,3.12646675 L9.70065189,3.12646675 L12.8719687,6.29778357 L12.8719687,12.8735332 L12.8735332,12.8735332 Z M7.33350717,5.78461538 C7.64485007,5.78461538 7.89674055,5.5327249 7.89674055,5.22138201 L7.89674055,4.54863103 C7.89674055,4.23728814 7.64485007,3.98539765 7.33350717,3.98539765 C7.02216428,3.98539765 6.77027379,4.23728814 6.77027379,4.54863103 L6.77027379,5.22138201 C6.77027379,5.5327249 7.02216428,5.78461538 7.33350717,5.78461538 Z" id="path-1"></path>
    </defs>
    <g id="控件" stroke="none" stroke-width="1" fill="none" fill-rule="evenodd">
        <g id="Button/Primary/Icon/Medium" transform="translate(-14.000000, -10.000000)">
            <g id="Button/_Resources/Icon/Save" transform="translate(12.000000, 8.000000)">
                <mask id="mask-2" fill="white">
                    <use xlink:href="#path-1"></use>
                </mask>
                <g id="Mask" fill-rule="nonzero"></g>
                <g id="Button/_Resources/Color/White" mask="url(#mask-2)" fill="#FFFFFF" fill-rule="evenodd">
                    <g transform="translate(-32.666667, -30.666667)" id="Oval-Copy-4">
                        <circle cx="40" cy="40" r="40"></circle>
                    </g>
                </g>
            </g>
        </g>
    </g>
</svg>