<?xml version="1.0" encoding="UTF-8"?>
<svg width="14px" height="14px" viewBox="0 0 14 14" version="1.1" xmlns="http://www.w3.org/2000/svg" xmlns:xlink="http://www.w3.org/1999/xlink">
    <!-- Generator: Sketch 61.2 (89653) - https://sketch.com -->
    <title>Icon/Time</title>
    <desc>Created with Sketch.</desc>
    <defs>
        <path d="M7,0 C3.13359375,0 0,3.13359375 0,7 C0,10.8664062 3.13359375,14 7,14 C10.8664062,14 14,10.8664062 14,7 C14,3.13359375 10.8664062,0 7,0 Z M11.2533203,11.2533203 C10.7009766,11.8056641 10.0570313,12.2404297 9.340625,12.5425781 C8.59960938,12.8570313 7.81210938,13.015625 7,13.015625 C6.18789063,13.015625 5.40039062,12.8570313 4.659375,12.5439453 C3.94296875,12.2404297 3.30039062,11.8070312 2.74667969,11.2546875 C2.19433594,10.7023438 1.75957031,10.0583984 1.45742188,9.34199219 C1.14296875,8.59960938 0.984375,7.81210938 0.984375,7 C0.984375,6.18789063 1.14296875,5.40039062 1.45605469,4.659375 C1.75957031,3.94296875 2.19296875,3.30039062 2.7453125,2.74667969 C3.29765625,2.19433594 3.94160156,1.75957031 4.65800781,1.45742188 C5.40039062,1.14296875 6.18789063,0.984375 7,0.984375 C7.81210938,0.984375 8.59960938,1.14296875 9.340625,1.45605469 C10.0570313,1.75957031 10.6996094,2.19296875 11.2533203,2.7453125 C11.8056641,3.29765625 12.2404297,3.94160156 12.5425781,4.65800781 C12.8570313,5.40039062 13.015625,6.18789063 13.015625,7 C13.015625,7.81210938 12.8570313,8.59960938 12.5439453,9.340625 C12.2404297,10.0570313 11.8070312,10.7009766 11.2533203,11.2533203 Z M10.0214844,6.890625 L7.4921875,6.890625 L7.4921875,3.609375 C7.4921875,3.33730469 7.27207031,3.1171875 7,3.1171875 L7,3.1171875 C6.72792969,3.1171875 6.5078125,3.33730469 6.5078125,3.609375 L6.5078125,6.890625 L6.5078125,6.890625 C6.5078125,7.43476562 6.94804688,7.875 7.4921875,7.875 L7.4921875,7.875 L10.0214844,7.875 C10.2935547,7.875 10.5136719,7.65488281 10.5136719,7.3828125 L10.5136719,7.3828125 C10.5136719,7.11074219 10.2935547,6.890625 10.0214844,6.890625 Z" id="path-1"></path>
    </defs>
    <g id="控件" stroke="none" stroke-width="1" fill="none" fill-rule="evenodd">
        <g id="TimePicker/Medium/Selected" transform="translate(-198.000000, -9.000000)">
            <g id="_Resources/Picker/Icon/Time" transform="translate(198.000000, 9.000000)">
                <mask id="mask-2" fill="white">
                    <use xlink:href="#path-1"></use>
                </mask>
                <use id="Mask" fill-opacity="0.25" fill="#000000" fill-rule="nonzero" xlink:href="#path-1"></use>
            </g>
        </g>
    </g>
</svg>